<mxfile host="app.diagrams.net" modified="2024-07-08T13:37:52.482Z" agent="Mozilla/5.0 (X11; Linux x86_64) AppleWebKit/537.36 (KHTML, like Gecko) Chrome/126.0.0.0 Safari/537.36" version="24.6.4" etag="oOIMzcWcPyxd5fr9UN-6" type="github">
  <diagram name="ページ1" id="eHsV2jw0FbMTvwKgB9cE">
    <mxGraphModel>
      <root>
        <mxCell id="0" />
        <mxCell id="1" parent="0" />
      </root>
    </mxGraphModel>
  </diagram>
</mxfile>
